<?xml version="1.0" encoding="iso-8859-1"?>
<!-- Generator: Adobe Illustrator 19.0.0, SVG Export Plug-In . SVG Version: 6.00 Build 0)  -->
<svg version="1.1" id="Layer_1" xmlns="http://www.w3.org/2000/svg" xmlns:xlink="http://www.w3.org/1999/xlink" x="0px" y="0px"
	 viewBox="0 0 512 512" style="enable-background:new 0 0 512 512;" xml:space="preserve">
<path style="fill:#52D6C6;" d="M399.849,453.94c-40.439,29.629-90.326,47.123-144.298,47.123
	c-134.981,0-244.405-109.424-244.405-244.405c0-39.697,9.464-77.183,26.259-110.325l20.6-33.609
	c44.449-60.901,116.377-100.47,197.546-100.47c134.981,0,244.405,109.424,244.405,244.405c0,48.79-14.296,94.241-38.929,132.392
	L399.849,453.94z"/>
<path style="opacity:0.1;enable-background:new    ;" d="M398.694,67.268c28.806,39.571,45.814,88.283,45.814,140.975
	c0,47.872-14.027,92.468-38.196,129.9l-60.026,63.668c-39.677,29.072-88.626,46.238-141.583,46.238
	c-52.692,0-101.403-17.008-140.975-45.814c43.599,59.891,114.242,98.83,193.99,98.83c52.957,0,101.905-17.166,141.583-46.236
	l60.026-63.668c24.169-37.434,38.196-82.029,38.196-129.9C497.524,181.511,458.585,110.867,398.694,67.268z"/>
<rect x="383.253" y="423.442" transform="matrix(0.7071 0.7071 -0.7071 0.7071 442.2962 -189.2688)" style="fill:#52D6C6;" width="132.725" height="31.644"/>
<path style="fill:#6C489C;" d="M268.751,258.394c39.379-41.334,105.819-40.369,146.187,0s40.369,105.819,0,146.187
	s-105.819,40.369-146.187,0c-18.071-18.071-29.944-41.094-29.944-64.793C238.805,307.1,246.517,281.731,268.751,258.394z"/>
<circle style="fill:#FFFFFF;" cx="341.848" cy="331.488" r="69.77"/>
<path d="M391.856,447.062c-26.959,19.752-57.235,33.336-89.313,40.272c6.363-5.538,12.496-12.145,18.331-19.8
	c2.582-3.384,1.929-8.222-1.455-10.803c-3.387-2.583-8.223-1.93-10.804,1.456c-14.955,19.613-31.665,31.188-48.745,33.889
	l0.686-65.404c0.044-4.257-3.37-7.743-7.628-7.788c-0.027,0-0.054,0-0.082,0c-4.219,0-7.661,3.399-7.706,7.628l-0.688,65.591
	c-25.47-3.906-49.557-27.212-68.513-66.624c-3.966-8.245-7.602-16.998-10.904-26.179c15.631-6.185,31.946-10.704,48.704-13.436
	c4.203-0.684,7.053-4.647,6.368-8.847c-0.686-4.203-4.643-7.057-8.847-6.368c-17.571,2.863-34.684,7.571-51.096,13.998
	c-11.002-35.915-17.176-77.4-17.829-120.937h81.904c4.258,0,7.708-3.45,7.708-7.708c0-4.258-3.45-7.708-7.708-7.708h-81.904
	c0.662-44.122,6.998-86.133,18.279-122.378c26.687,10.391,55.142,16.222,84.227,17.057l0.298,89.57
	c0.014,4.249,3.463,7.683,7.707,7.683c0.009,0,0.019,0,0.027,0c4.257-0.014,7.696-3.477,7.683-7.734l-0.298-89.548
	c28.383-0.913,56.158-6.574,82.259-16.595c7.024,23.119,11.974,48.639,14.483,75.368c0.398,4.239,4.161,7.354,8.395,6.954
	c4.239-0.398,7.352-4.156,6.954-8.395c-2.657-28.303-7.976-55.381-15.556-79.92c20.631-9.416,40.028-21.646,57.628-36.467
	c44.028,41.542,72.169,99.737,74.251,164.408h-44.143c-4.258,0-7.708,3.45-7.708,7.708c0,4.258,3.45,7.708,7.708,7.708h44.151
	c-1.382,42.949-14.294,84.458-37.566,120.501c-2.309,3.577-1.282,8.348,2.294,10.657c1.293,0.836,2.742,1.233,4.175,1.233
	c2.529,0,5.008-1.245,6.483-3.528c26.273-40.694,40.161-87.92,40.161-136.573c0-67.342-26.225-130.653-73.842-178.27
	c-3.402-3.402-6.893-6.683-10.451-9.865c-0.07-0.066-0.142-0.126-0.213-0.189c-46.213-41.234-105.172-63.79-167.606-63.79l0,0
	c-0.009,0-0.019,0-0.027,0c-0.003,0-0.007,0-0.01,0c-40.357,0.006-80.489,9.779-116.061,28.264
	c-18.298,9.51-35.419,21.347-50.903,35.048c-0.455,0.323-0.885,0.696-1.274,1.127C70.692,80.119,58.749,93.26,48.34,107.52
	c-2.51,3.439-1.757,8.261,1.681,10.77c3.438,2.508,8.26,1.757,10.77-1.681c8.679-11.891,18.4-22.832,28.967-32.764
	c17.31,14.584,36.355,26.665,56.606,36.022c-12.027,38.078-18.772,82.197-19.448,128.426H15.546
	c1.091-34.808,9.582-68.122,25.298-99.132c1.924-3.798,0.406-8.436-3.392-10.361c-3.798-1.924-8.436-0.406-10.361,3.392
	C9.114,177.664,0,215.955,0,256.001c0,67.341,26.225,130.653,73.842,178.269c47.618,47.618,110.93,73.842,178.27,73.842
	c53.974,0,105.447-16.81,148.855-48.615c3.434-2.516,4.178-7.339,1.662-10.773C400.114,445.29,395.289,444.547,391.856,447.062z
	 M165.552,111.289c3.165-8.666,6.625-16.948,10.387-24.768c18.952-39.403,43.032-62.708,68.494-66.622l0.358,107.646
	C217.416,126.701,190.644,121.145,165.552,111.289z M260.207,127.518l-0.358-107.544c20.508,3.472,40.842,20.595,57.986,49.109
	c7.545,12.549,14.198,26.899,19.836,42.601C313.104,121.204,286.946,126.608,260.207,127.518z M351.865,105.648
	c-5.922-16.353-12.903-31.342-20.819-44.508c-9.069-15.085-19.113-27.396-29.779-36.688c37.958,8.05,72.588,25.211,101.47,49.098
	C387.105,86.459,370.003,97.218,351.865,105.648z M101.478,73.542c28.958-23.834,63.261-40.567,99.91-48.667
	c-14.636,12.829-27.973,31.324-39.343,54.964c-3.856,8.019-7.411,16.492-10.668,25.342C133.601,96.819,116.83,86.221,101.478,73.542
	z M15.555,263.709h111.361c0.667,45.666,7.258,89.275,19.012,127.035c-20.44,9.502-39.611,21.767-57.002,36.553
	C45.399,385.811,17.622,327.95,15.555,263.709z M100.549,437.657c15.447-12.895,32.355-23.695,50.325-32.208
	c3.392,9.349,7.115,18.28,11.171,26.713c11.402,23.706,24.783,42.238,39.465,55.071
	C163.707,478.966,129.254,461.646,100.549,437.657z"/>
<path d="M338.406,408.27c19.841,0,39.681-7.552,54.788-22.656c30.209-30.209,30.209-79.364,0-109.572
	c-30.21-30.208-79.362-30.21-109.573,0c-30.209,30.209-30.209,79.364,0,109.572C298.725,400.718,318.566,408.27,338.406,408.27z
	 M294.522,286.944c12.098-12.099,27.991-18.149,43.884-18.149c15.893,0,31.787,6.05,43.885,18.149
	c24.199,24.198,24.199,63.571,0,87.768c-24.197,24.198-63.572,24.2-87.769,0C270.323,350.515,270.323,311.142,294.522,286.944z"/>
<path d="M509.743,468.887l-77.933-77.933c27.69-42.998,22.742-101.068-14.86-138.67c-20.98-20.98-48.875-32.534-78.545-32.534
	c-29.67,0-57.565,11.554-78.546,32.534c-13.666,13.667-23.563,30.693-28.617,49.24c-1.119,4.107,1.303,8.343,5.411,9.464
	c4.106,1.118,8.345-1.303,9.464-5.411c4.35-15.959,12.871-30.618,24.645-42.391c18.068-18.069,42.09-28.02,67.643-28.02
	c25.551,0,49.575,9.951,67.642,28.02c37.299,37.298,37.299,97.987,0,135.285c-18.067,18.069-42.09,28.02-67.642,28.02
	c-25.553,0-49.575-9.951-67.643-28.02c-16.061-16.06-25.902-37.353-27.711-59.957c-0.34-4.244-4.058-7.403-8.299-7.069
	c-4.244,0.34-7.408,4.056-7.069,8.299c2.102,26.252,13.53,50.981,32.178,69.629c20.981,20.98,48.876,32.534,78.546,32.534
	c21.662,0,42.375-6.167,60.144-17.656l77.914,77.915c1.446,1.445,3.406,2.257,5.451,2.257s4.004-0.812,5.451-2.258l22.376-22.376
	C512.752,476.778,512.752,471.898,509.743,468.887z M481.917,485.813l-70.704-70.704l5.717-5.716
	c0.007-0.007,0.014-0.013,0.022-0.021c0.006-0.006,0.012-0.013,0.02-0.021l5.717-5.717l70.703,70.703L481.917,485.813z"/>
<g>
</g>
<g>
</g>
<g>
</g>
<g>
</g>
<g>
</g>
<g>
</g>
<g>
</g>
<g>
</g>
<g>
</g>
<g>
</g>
<g>
</g>
<g>
</g>
<g>
</g>
<g>
</g>
<g>
</g>
</svg>
